<?xml version="1.0" encoding="UTF-8"?>
<svg width="350px" height="350px" viewBox="0 0 350 350" version="1.1" xmlns="http://www.w3.org/2000/svg" xmlns:xlink="http://www.w3.org/1999/xlink">
    <title>novel-favicon</title>
    <g id="Page-1" stroke="none" stroke-width="1" fill="none" fill-rule="evenodd">
        <g id="Artboard" transform="translate(-75.000000, -75.000000)">
            <path d="M164.735982,75 L335.264018,75 C366.467174,75 377.782192,78.2488964 389.1896,84.3496446 C400.597007,90.4503929 409.549607,99.402993 415.650355,110.8104 C421.751104,122.217808 425,133.532826 425,164.735982 L425,335.264018 C425,366.467174 421.751104,377.782192 415.650355,389.1896 C409.549607,400.597007 400.597007,409.549607 389.1896,415.650355 C377.782192,421.751104 366.467174,425 335.264018,425 L164.735982,425 C133.532826,425 122.217808,421.751104 110.8104,415.650355 C99.402993,409.549607 90.4503929,400.597007 84.3496446,389.1896 C78.2488964,377.782192 75,366.467174 75,335.264018 L75,164.735982 C75,133.532826 78.2488964,122.217808 84.3496446,110.8104 C90.4503929,99.402993 99.402993,90.4503929 110.8104,84.3496446 C122.217808,78.2488964 133.532826,75 164.735982,75 Z" id="Rectangle" fill="#6236FF"></path>
            <text id="i/o" font-family="OperatorMono-Book, Operator Mono" font-size="200" font-weight="300" letter-spacing="-16" fill="#000000" fill-opacity="0.7">
                <tspan x="109" y="322">i/o</tspan>
            </text>
        </g>
    </g>
</svg>